<svg id="visual" viewBox="0 0 2500 1500" width="2500" height="1500" xmlns="http://www.w3.org/2000/svg" xmlns:xlink="http://www.w3.org/1999/xlink" version="1.1"><rect x="0" y="0" width="2500" height="1500" fill="#F3F4F6"></rect><path d="M0 1335L46.3 1232.2C92.7 1129.3 185.3 923.7 278 884.8C370.7 846 463.3 974 555.8 894.2C648.3 814.3 740.7 526.7 833.2 434.3C925.7 342 1018.3 445 1111 603.5C1203.7 762 1296.3 976 1389 1051.2C1481.7 1126.3 1574.3 1062.7 1666.8 930C1759.3 797.3 1851.7 595.7 1944.2 606.8C2036.7 618 2129.3 842 2222 808.7C2314.7 775.3 2407.3 484.7 2453.7 339.3L2500 194" fill="none" stroke-linecap="round" stroke-linejoin="miter" stroke="#C0B099" stroke-width="86"></path></svg>